<?xml version="1.0" encoding="utf-8"?>
<!-- Generator: Adobe Illustrator 16.0.0, SVG Export Plug-In . SVG Version: 6.00 Build 0)  -->
<!DOCTYPE svg PUBLIC "-//W3C//DTD SVG 1.1//EN" "http://www.w3.org/Graphics/SVG/1.1/DTD/svg11.dtd">
<svg version="1.1" id="Layer_1" xmlns="http://www.w3.org/2000/svg" xmlns:xlink="http://www.w3.org/1999/xlink" x="0px" y="0px"
	 width="249.45px" height="167.24px" viewBox="0 0 249.45 167.24" enable-background="new 0 0 249.45 167.24" xml:space="preserve">
<rect y="-0.802" fill="#414042" width="249.471" height="168.042"/>
<g>
	<g>
		<path fill="#58595B" d="M60.01,83.728V69.788h4.765c4.347,0,7.147,3.031,7.147,6.981c0,3.971-2.8,6.958-7.147,6.958H60.01z
			 M70.125,76.77c0-3.01-1.902-5.434-5.35-5.434h-3.03v10.846h3.03C68.161,82.182,70.125,79.758,70.125,76.77z"/>
		<path fill="#58595B" d="M83.81,83.728l-0.825-1.958h-7.708l-0.872,1.958H72.42l6.72-13.928l0,0l6.655,13.928H83.81z
			 M79.141,73.118l-3.361,7.144l6.698,0.002L79.141,73.118z"/>
		<path fill="#58595B" d="M97.53,83.746l-8.209-9.236l0.022,9.218h-1.735V69.788l0,0l9.831,11.093l-0.029-11.093h1.734v13.939
			L97.53,83.746z"/>
		<path fill="#58595B" d="M102.401,83.728V70.949l1.735-1.161v13.939H102.401z"/>
		<path fill="#58595B" d="M107.394,83.728V69.788h9.133v1.547h-7.398v5.654h6.091v1.548h-6.091v3.645h7.398v1.546H107.394z"/>
		<path fill="#58595B" d="M119.052,83.728V69.788h1.734v12.394h7.639v1.546H119.052z"/>
		<path fill="#58595B" d="M162.274,83.728l-0.797-8.505l-5.075,8.486h-0.71l-5.241-8.469l-0.676,8.487h-1.735l1.161-13.939l0,0
			l6.854,11.001l6.793-11.001l0,0l1.161,13.939H162.274z"/>
	</g>
</g>
<polygon fill="#FFFFFF" points="168.875,94.542 75.625,94.542 73.625,86.542 170.875,86.542 "/>
<g>
	<g>
		<path fill="#FFFFFF" d="M59.01,82.728V68.788h4.765c4.347,0,7.147,3.031,7.147,6.981c0,3.97-2.8,6.958-7.147,6.958H59.01z
			 M69.125,75.77c0-3.01-1.902-5.434-5.35-5.434h-3.03v10.846h3.03C67.161,81.182,69.125,78.758,69.125,75.77z"/>
		<path fill="#FFFFFF" d="M82.81,82.728l-0.825-1.958h-7.708l-0.872,1.958H71.42l6.72-13.928l0,0l6.655,13.928H82.81z
			 M78.141,72.118l-3.361,7.144l6.698,0.002L78.141,72.118z"/>
		<path fill="#FFFFFF" d="M96.53,82.746l-8.209-9.237l0.022,9.218h-1.735V68.788l0,0l9.831,11.092l-0.029-11.092h1.734v13.939
			L96.53,82.746z"/>
		<path fill="#FFFFFF" d="M101.401,82.728V69.949l1.735-1.161v13.939H101.401z"/>
		<path fill="#FFFFFF" d="M106.394,82.728V68.788h9.133v1.547h-7.398v5.654h6.091v1.547h-6.091v3.645h7.398v1.546H106.394z"/>
		<path fill="#FFFFFF" d="M118.052,82.728V68.788h1.734v12.394h7.639v1.546H118.052z"/>
		<path fill="#FFFFFF" d="M161.274,82.728l-0.797-8.505l-5.075,8.487h-0.71l-5.241-8.469l-0.676,8.487h-1.735l1.161-13.939l0,0
			l6.854,11.001l6.793-11.001l0,0l1.161,13.939H161.274z"/>
	</g>
</g>
<text transform="matrix(1 0 0 1 82.6167 92.166)" fill="#414042" font-family="'ProximaNova-LightIt'" font-size="6">web developer &amp; photographer</text>
<polyline fill="#58595B" points="60.047,82.734 59.01,82.743 60.01,83.728 "/>
<polygon fill="#58595B" points="71.42,82.728 72.42,83.728 73,82.734 "/>
<polygon fill="#58595B" points="82.811,82.728 83.811,83.728 84.391,82.734 "/>
<polygon fill="#58595B" points="86.624,82.743 87.624,83.743 88.203,82.75 "/>
<polygon fill="#58595B" points="96.53,82.759 97.53,83.759 98.875,82.766 "/>
<polygon fill="#58595B" points="101.374,82.743 102.374,83.743 102.953,82.75 "/>
<polygon fill="#58595B" points="103.155,68.79 104.155,69.79 103.156,70.438 "/>
<polygon fill="#58595B" points="98.155,68.79 99.155,69.79 98.172,69.797 "/>
<polygon fill="#58595B" points="115.545,68.79 116.545,69.79 115.547,69.781 "/>
<polygon fill="#58595B" points="114.233,75.993 115.233,76.993 114.234,77 "/>
<polygon fill="#58595B" points="119.795,68.79 120.795,69.79 119.797,69.781 "/>
<polygon fill="#58595B" points="106.405,82.743 107.405,83.743 107.984,82.75 "/>
<polygon fill="#58595B" points="118.077,82.743 119.077,83.743 119.656,82.75 "/>
<polygon fill="#58595B" points="115.53,81.181 116.53,82.181 115.531,82.188 "/>
<polygon fill="#58595B" points="127.436,81.181 128.436,82.181 127.438,82.188 "/>
<path fill="#58595B" d="M130.91,83.728V69.788h9.133v1.547h-7.398v5.654h6.091v1.548h-6.091v3.645h7.398v1.546H130.91z"/>
<path fill="#FFFFFF" d="M129.91,82.728V68.788h9.133v1.547h-7.398v5.654h6.091v1.547h-6.091v3.645h7.398v1.546H129.91z"/>
<polygon fill="#58595B" points="139.061,68.806 140.061,69.806 139.062,69.797 "/>
<polygon fill="#58595B" points="137.733,75.993 138.733,76.993 137.734,77 "/>
<polygon fill="#58595B" points="129.92,82.743 130.92,83.743 131.5,82.75 "/>
<polygon fill="#58595B" points="139.045,81.196 140.045,82.196 139.047,82.203 "/>
<polygon fill="#58595B" points="147.045,82.743 148.045,83.743 148.625,82.75 "/>
<polygon fill="#58595B" points="154.717,82.728 155.717,83.728 156.297,82.734 "/>
<path fill="#58595B" d="M166.082,83.759V69.819h9.133v1.547h-7.398v5.654h6.091v1.548h-6.091v3.645h7.398v1.546H166.082z"/>
<path fill="#FFFFFF" d="M165.082,82.759V68.819h9.133v1.547h-7.398v5.654h6.091v1.547h-6.091v3.645h7.398v1.546H165.082z"/>
<polygon fill="#58595B" points="174.233,68.837 175.233,69.837 174.234,69.828 "/>
<polygon fill="#58595B" points="172.92,76.009 173.92,77.009 172.922,77.016 "/>
<polygon fill="#58595B" points="165.092,82.774 166.092,83.774 166.672,82.781 "/>
<polygon fill="#58595B" points="174.217,81.196 175.217,82.196 174.219,82.203 "/>
<polygon fill="#58595B" points="161.28,82.732 162.28,83.732 162.859,82.739 "/>
<path fill="#58595B" d="M189.682,83.759V70.98l1.735-1.161v13.939H189.682z"/>
<path fill="#58595B" d="M177.771,83.774V69.835h1.734v12.394h7.639v1.546H177.771z"/>
<path fill="#FFFFFF" d="M188.682,82.759V69.98l1.735-1.161v13.939H188.682z"/>
<path fill="#FFFFFF" d="M176.771,82.774V68.835h1.734v12.394h7.639v1.546H176.771z"/>
<polygon fill="#58595B" points="188.655,82.774 189.655,83.774 190.234,82.781 "/>
<polygon fill="#58595B" points="190.436,68.821 191.436,69.821 190.438,70.469 "/>
<polygon fill="#58595B" points="178.514,68.837 179.514,69.837 178.516,69.828 "/>
<polygon fill="#58595B" points="176.795,82.79 177.795,83.79 178.375,82.797 "/>
<polygon fill="#58595B" points="186.155,81.228 187.155,82.228 186.156,82.234 "/>
<polygon fill="#58595B" points="78.139,68.79 79.139,69.79 78.969,70.5 "/>
<polygon fill="#58595B" points="69.045,70.853 70.139,71.946 70.453,72.438 "/>
<polygon fill="#58595B" points="86.624,68.79 87.624,69.79 87.641,69.938 "/>
<polygon fill="#58595B" points="148.202,68.79 149.202,69.79 149.297,70.5 "/>
<polygon fill="#58595B" points="161.858,68.79 162.858,69.79 162.062,71.25 "/>
</svg>
