<?xml version="1.0" encoding="utf-8"?>
<!-- Generator: Adobe Illustrator 16.0.0, SVG Export Plug-In . SVG Version: 6.00 Build 0)  -->
<!DOCTYPE svg PUBLIC "-//W3C//DTD SVG 1.1//EN" "http://www.w3.org/Graphics/SVG/1.1/DTD/svg11.dtd">
<svg version="1.1" id="Layer_1" xmlns="http://www.w3.org/2000/svg" xmlns:xlink="http://www.w3.org/1999/xlink" x="0px" y="0px"
	 width="2500px" height="1000px" viewBox="0 0 2500 1000" enable-background="new 0 0 2500 1000" xml:space="preserve">
<rect fill="#414042" width="2500.998" height="1000.285"/>
<g>
	<g>
		<g>
			<path fill="#58595B" d="M861.814,512.28v-82.979h28.364c25.877,0,42.543,18.041,42.543,41.555
				c0,23.639-16.666,41.418-42.543,41.418h-28.364V512.28z M922.026,470.862c0-17.919-11.321-32.347-31.848-32.347h-18.034v64.563
				h18.034C910.336,503.078,922.026,488.646,922.026,470.862z"/>
			<path fill="#58595B" d="M1003.487,512.28l-4.912-11.656h-45.882l-5.191,11.656h-11.815l40.003-82.91l0,0l39.614,82.91H1003.487z
				 M975.695,449.124l-20.009,42.526l39.872,0.011L975.695,449.124z"/>
			<path fill="#58595B" d="M1085.155,512.388l-48.864-54.98l0.131,54.873h-10.327v-82.979l0,0l58.521,66.031l-0.171-66.031h10.32
				v82.974L1085.155,512.388z"/>
			<path fill="#58595B" d="M1114.151,512.28v-76.067l10.33-6.912v82.974h-10.33V512.28z"/>
			<path fill="#58595B" d="M1143.874,512.28v-82.979h54.363v9.208H1154.2v33.658h36.26v9.214h-36.26v21.698h44.037v9.202H1143.874z"
				/>
			<path fill="#58595B" d="M1213.271,512.28v-82.979h10.32v73.777h45.465v9.202H1213.271z"/>
			<path fill="#58595B" d="M1470.548,512.28l-4.742-50.626l-30.205,50.512h-4.232l-31.193-50.411l-4.021,50.519h-10.336
				l6.917-82.974l0,0l40.796,65.484l40.436-65.484l0,0l6.906,82.974h-10.324V512.28z"/>
		</g>
	</g>
	<polygon fill="#FFFFFF" points="1509.845,576.651 954.766,576.651 942.86,529.03 1521.75,529.03 	"/>
	<g>
		<g>
			<path fill="#FFFFFF" d="M855.861,506.327v-82.979h28.365c25.877,0,42.543,18.041,42.543,41.555
				c0,23.633-16.666,41.418-42.543,41.418h-28.365V506.327z M916.073,464.909c0-17.919-11.32-32.347-31.847-32.347h-18.035v64.563
				h18.035C904.384,497.125,916.073,482.694,916.073,464.909z"/>
			<path fill="#FFFFFF" d="M997.535,506.327l-4.912-11.655H946.74l-5.191,11.655h-11.814l40.003-82.909l0,0l39.613,82.909H997.535z
				 M969.743,443.171l-20.009,42.526l39.872,0.011L969.743,443.171z"/>
			<path fill="#FFFFFF" d="M1079.203,506.435l-48.864-54.986l0.131,54.873h-10.327v-82.973l0,0l58.521,66.025l-0.172-66.025h10.321
				v82.973L1079.203,506.435z"/>
			<path fill="#FFFFFF" d="M1108.198,506.327V430.26l10.33-6.912v82.973h-10.33V506.327z"/>
			<path fill="#FFFFFF" d="M1137.921,506.327v-82.979h54.364v9.208h-44.037v33.658h36.259v9.208h-36.259v21.697h44.037v9.202
				h-54.364V506.327z"/>
			<path fill="#FFFFFF" d="M1207.317,506.327v-82.979h10.321v73.776h45.464v9.202H1207.317z"/>
			<path fill="#FFFFFF" d="M1464.596,506.327l-4.743-50.626l-30.205,50.519h-4.232l-31.192-50.411l-4.022,50.519h-10.336
				l6.918-82.973l0,0l40.796,65.484l40.437-65.484l0,0l6.905,82.973H1464.596z"/>
		</g>
	</g>
	<text transform="matrix(1 0 0 1 996.3857 562.5107)" fill="#414042" font-family="'ProximaNova-LightIt'" font-size="35.7156">web developer &amp; photographer</text>
	<polyline fill="#58595B" points="862.035,506.362 855.861,506.418 861.814,512.28 	"/>
	<polygon fill="#58595B" points="929.734,506.327 935.687,512.28 939.14,506.362 	"/>
	<polygon fill="#58595B" points="997.541,506.327 1003.493,512.28 1006.946,506.362 	"/>
	<polygon fill="#58595B" points="1020.238,506.418 1026.19,512.37 1029.638,506.458 	"/>
	<polygon fill="#58595B" points="1079.203,506.51 1085.155,512.463 1093.163,506.554 	"/>
	<polygon fill="#58595B" points="1108.039,506.418 1113.991,512.37 1117.438,506.458 	"/>
	<polygon fill="#58595B" points="1118.64,423.36 1124.592,429.312 1118.646,433.169 	"/>
	<polygon fill="#58595B" points="1088.876,423.36 1094.829,429.312 1088.978,429.354 	"/>
	<polygon fill="#58595B" points="1192.393,423.36 1198.345,429.312 1192.404,429.26 	"/>
	<polygon fill="#58595B" points="1184.583,466.237 1190.535,472.19 1184.589,472.23 	"/>
	<polygon fill="#58595B" points="1217.69,423.36 1223.644,429.312 1217.702,429.26 	"/>
	<polygon fill="#58595B" points="1137.985,506.418 1143.938,512.37 1147.385,506.458 	"/>
	<polygon fill="#58595B" points="1207.466,506.418 1213.419,512.37 1216.862,506.458 	"/>
	<polygon fill="#58595B" points="1192.303,497.119 1198.255,503.072 1192.308,503.113 	"/>
	<polygon fill="#58595B" points="1263.173,497.119 1269.126,503.072 1263.185,503.113 	"/>
	<path fill="#58595B" d="M1283.855,512.28v-82.979h54.364v9.208h-44.04v33.658h36.262v9.214h-36.262v21.698h44.04v9.202H1283.855z"
		/>
	<path fill="#FFFFFF" d="M1277.903,506.327v-82.979h54.363v9.208h-44.039v33.658h36.262v9.208h-36.262v21.697h44.039v9.202h-54.363
		V506.327z"/>
	<polygon fill="#58595B" points="1332.372,423.456 1338.324,429.409 1332.384,429.354 	"/>
	<polygon fill="#58595B" points="1324.466,466.237 1330.419,472.19 1324.478,472.23 	"/>
	<polygon fill="#58595B" points="1277.961,506.418 1283.913,512.37 1287.366,506.458 	"/>
	<polygon fill="#58595B" points="1332.278,497.207 1338.231,503.159 1332.29,503.203 	"/>
	<polygon fill="#58595B" points="1379.899,506.418 1385.853,512.37 1389.305,506.458 	"/>
	<polygon fill="#58595B" points="1425.567,506.327 1431.52,512.28 1434.973,506.362 	"/>
	<path fill="#58595B" d="M1493.22,512.463v-82.979h54.363v9.211h-44.039v33.655h36.262v9.214h-36.262v21.697h44.039v9.202H1493.22
		L1493.22,512.463z"/>
	<path fill="#FFFFFF" d="M1487.267,506.51v-82.978h54.364v9.21h-44.04v33.655h36.262v9.208h-36.262v21.697h44.04v9.202h-54.364
		V506.51z"/>
	<polygon fill="#58595B" points="1541.735,423.639 1547.688,429.592 1541.747,429.54 	"/>
	<polygon fill="#58595B" points="1533.923,466.33 1539.875,472.283 1533.935,472.327 	"/>
	<polygon fill="#58595B" points="1487.325,506.601 1493.278,512.553 1496.73,506.645 	"/>
	<polygon fill="#58595B" points="1541.643,497.207 1547.595,503.159 1541.653,503.203 	"/>
	<polygon fill="#58595B" points="1464.631,506.351 1470.583,512.303 1474.036,506.395 	"/>
	<path fill="#58595B" d="M1633.698,512.463v-76.067l10.324-6.912v82.973h-10.324V512.463z"/>
	<path fill="#58595B" d="M1562.802,512.553V429.58h10.312v73.777h45.482v9.201h-55.795V512.553z"/>
	<path fill="#FFFFFF" d="M1627.745,506.51v-76.066l10.324-6.912v82.972h-10.324V506.51z"/>
	<path fill="#FFFFFF" d="M1556.85,506.601v-82.973h10.312v73.777h45.482v9.202h-55.794V506.601z"/>
	<polygon fill="#58595B" points="1627.583,506.601 1633.536,512.553 1636.989,506.645 	"/>
	<polygon fill="#58595B" points="1638.187,423.543 1644.139,429.496 1638.198,433.353 	"/>
	<polygon fill="#58595B" points="1567.22,423.639 1573.173,429.592 1567.231,429.54 	"/>
	<polygon fill="#58595B" points="1556.989,506.696 1562.941,512.649 1566.395,506.736 	"/>
	<polygon fill="#58595B" points="1612.702,497.398 1618.654,503.352 1612.713,503.386 	"/>
	<polygon fill="#58595B" points="969.731,423.36 975.684,429.312 974.672,433.539 	"/>
	<polygon fill="#58595B" points="915.597,435.64 922.11,442.145 923.979,445.075 	"/>
	<polygon fill="#58595B" points="1020.238,423.36 1026.19,429.312 1026.292,430.193 	"/>
	<polygon fill="#58595B" points="1386.782,423.36 1392.734,429.312 1393.304,433.539 	"/>
	<polygon fill="#58595B" points="1468.072,423.36 1474.024,429.312 1469.293,438.003 	"/>
</g>
</svg>
